<svg id="Layer_1" data-name="Layer 1" xmlns="http://www.w3.org/2000/svg" xmlns:xlink="http://www.w3.org/1999/xlink" width="118" height="44" viewBox="0 0 118 44"><defs><style>.cls-1{fill:url(#linear-gradient);}.cls-2{fill:url(#linear-gradient-2);}.cls-3{fill:url(#linear-gradient-3);}.cls-4,.cls-5{fill:#fff;}.cls-5{stroke:#fff;stroke-miterlimit:10;}</style><linearGradient id="linear-gradient" x1="-4.36" y1="36.91" x2="17.66" y2="14.89" gradientUnits="userSpaceOnUse"><stop offset="0.06" stop-color="#1b9aaa"/><stop offset="0.09" stop-color="#2d93a5"/><stop offset="0.17" stop-color="#55839a"/><stop offset="0.32" stop-color="#976a88"/><stop offset="0.44" stop-color="#c6577a"/><stop offset="0.53" stop-color="#e44b72"/><stop offset="0.58" stop-color="#ef476f"/><stop offset="0.67" stop-color="#f25c6d"/><stop offset="0.85" stop-color="#f99269"/><stop offset="1" stop-color="#ffc265"/></linearGradient><linearGradient id="linear-gradient-2" x1="22.31" y1="37.61" x2="43.14" y2="1.53" gradientUnits="userSpaceOnUse"><stop offset="0" stop-color="#ffc757"/><stop offset="0.92" stop-color="#f4f4b3"/></linearGradient><linearGradient id="linear-gradient-3" x1="11.68" y1="37.68" x2="30.98" y2="4.26" gradientUnits="userSpaceOnUse"><stop offset="0" stop-color="#ef476f"/><stop offset="0.69" stop-color="#f4c676"/></linearGradient></defs><title>S</title><path class="cls-1" d="M20.57,37.87q0,2.27-.2,4.49A1.79,1.79,0,0,1,18.59,44H4.65A4.65,4.65,0,0,1,0,39.35V2.67A1.82,1.82,0,0,1,1.66.72,3.35,3.35,0,0,1,2.71.89a3.4,3.4,0,0,1,1,.51C13.84,9.13,20.57,22.57,20.57,37.87Z"/><path class="cls-2" d="M42.79,7.64A80.86,80.86,0,0,1,34.65,43.4a1.09,1.09,0,0,1-2.06-.48,1.14,1.14,0,0,1,0-.29,51.4,51.4,0,0,0,1.77-13.44A49.42,49.42,0,0,0,27.71,4c-1-1.69,0-4,1.77-4H39.83a3.11,3.11,0,0,1,2.84,3.15Q42.79,5.38,42.79,7.64Z"/><path class="cls-3" d="M33.46,29a51.48,51.48,0,0,1-1.81,13.6A1.86,1.86,0,0,1,29.85,44H23.12a1.87,1.87,0,0,1-1.86-2c.13-1.52.2-3.07.2-4.64,0-12.46-4.36-23.7-11.35-31.64C8.31,3.63,9.47,0,12,0H23A2.52,2.52,0,0,1,25,1.13,48.87,48.87,0,0,1,33.46,29Z"/><path class="cls-4" d="M54,11.39l.08.18a2.49,2.49,0,0,0,1.53,1c1.38.44,2.83.75,4.19,1.33a9.33,9.33,0,0,1,1.59.86,5.24,5.24,0,0,1,1.72,1.9,5.07,5.07,0,0,1-.05,4.58,6.87,6.87,0,0,1-3.46,3.12,10.16,10.16,0,0,1-4.65.68,11.33,11.33,0,0,1-7-2.89l3.56-3.3a7.17,7.17,0,0,0,5.17,2.08c1,0,2.29-.49,2.11-1.72a1.21,1.21,0,0,0-.08-.23,2.71,2.71,0,0,0-1.85-1.35c-1.14-.39-2.34-.62-3.48-1a7,7,0,0,1-3.07-1.85A5,5,0,0,1,49,11.36,5.18,5.18,0,0,1,50.4,8a7.1,7.1,0,0,1,3.56-2,11,11,0,0,1,5.12-.16A11.14,11.14,0,0,1,63.89,8L62.41,9.41c-.65.65-1.35,1.3-2,2a5.2,5.2,0,0,0-5-1.59C54.61,10,53.75,10.48,54,11.39Z"/><path class="cls-4" d="M87.27,24.59h-6l-1.77-1.77A6.53,6.53,0,0,1,74.76,25a6.13,6.13,0,0,1-6.32-5.93,5.3,5.3,0,0,1,2.68-4.65,5.42,5.42,0,0,1-1.3-3.51,5.35,5.35,0,0,1,5.36-5.36A5.46,5.46,0,0,1,79.65,8a5.23,5.23,0,0,1,.55,4.89A5.84,5.84,0,0,1,78,15.47l1.2,1.2,2-2.47,5.23.05L82.14,19.6ZM72.58,19.06a2,2,0,0,0,2.18,1.82,2.5,2.5,0,0,0,1.87-1l-2.5-2.5C72.91,18,72.58,18.38,72.58,19.06Zm4-8.19a1.34,1.34,0,1,0-2.68,0V11a.16.16,0,0,1,0,.1,2.37,2.37,0,0,0,1.33,1.51,2.42,2.42,0,0,0,1.3-1.51l0-.1Z"/><path class="cls-4" d="M103.78,6.26h4.42V24.39h-4.84L96.24,13.57V24.33H91.82V6.19h4.86L103.78,17Z"/><path class="cls-4" d="M49.48,34a1.69,1.69,0,0,0,2.89,1.17l1.1,1.06a3.21,3.21,0,1,1,.14-4.32l-1.16,1a1.68,1.68,0,0,0-3,1.09Z"/><path class="cls-4" d="M61.6,30.82h1.54v3.59a2.79,2.79,0,0,1-5.57,0V30.82H59.1v3.59a1.25,1.25,0,0,0,2.5,0Z"/><path class="cls-4" d="M71.71,34.44l1.08,2.68H71.1l-.94-2.39H68.63v2.39H67.1V30.83h3.59a1.95,1.95,0,0,1,1,3.61Zm-.6-1.67a.42.42,0,0,0-.41-.41H68.63v.84h2.06A.42.42,0,0,0,71.1,32.77Z"/><path class="cls-4" d="M82.24,30.83v1.53h-2v4.76H78.73V32.36h-2V30.83Z"/><path class="cls-4" d="M90.71,36.35H88.15l-.3.77H86.2l2.42-6.29h1.62l2.43,6.29H91Zm-.58-1.53L89.43,33l-.69,1.82Z"/><path class="cls-4" d="M96.87,30.83H98.4V37.1H96.87Z"/><path class="cls-4" d="M106.77,30.85h1.53v6.27h-1.67l-2.47-3.75V37.1h-1.53V30.82h1.68l2.46,3.73Z"/><line class="cls-5" x1="47.95" y1="26.92" x2="109" y2="26.92"/></svg>