<svg id="Layer_1" data-name="Layer 1" xmlns="http://www.w3.org/2000/svg" xmlns:xlink="http://www.w3.org/1999/xlink" width="500" height="500" viewBox="0 0 500 500"><defs><style>.cls-1,.cls-2,.cls-3{stroke:#fff;stroke-miterlimit:10;}.cls-1{fill:url(#linear-gradient);}.cls-2{fill:url(#linear-gradient-2);}.cls-3{fill:url(#linear-gradient-3);}</style><linearGradient id="linear-gradient" x1="-0.33" y1="396.08" x2="215.4" y2="180.35" gradientUnits="userSpaceOnUse"><stop offset="0.06" stop-color="#1b9aaa"/><stop offset="0.09" stop-color="#2d93a5"/><stop offset="0.17" stop-color="#55839a"/><stop offset="0.32" stop-color="#976a88"/><stop offset="0.44" stop-color="#c6577a"/><stop offset="0.53" stop-color="#e44b72"/><stop offset="0.58" stop-color="#ef476f"/><stop offset="0.67" stop-color="#f25c6d"/><stop offset="0.85" stop-color="#f99269"/><stop offset="1" stop-color="#ffc265"/></linearGradient><linearGradient id="linear-gradient-2" x1="260.95" y1="402.9" x2="465" y2="49.49" gradientUnits="userSpaceOnUse"><stop offset="0" stop-color="#ffc757"/><stop offset="0.92" stop-color="#f4f4b3"/></linearGradient><linearGradient id="linear-gradient-3" x1="156.84" y1="403.64" x2="345.9" y2="76.17" gradientUnits="userSpaceOnUse"><stop offset="0" stop-color="#ef476f"/><stop offset="0.69" stop-color="#f4c676"/></linearGradient></defs><title>Artboard 1</title><path class="cls-1" d="M243.91,405.47q0,22.26-1.91,44a17.53,17.53,0,0,1-17.44,16.06H88A45.55,45.55,0,0,1,42.42,420V60.59c0-10.53,7.28-19.08,16.24-19.08A32.8,32.8,0,0,1,69,43.17a33.27,33.27,0,0,1,9.5,5C178,123.88,243.91,255.61,243.91,405.47Z"/><path class="cls-2" d="M461.58,109.36c0,127.76-29.06,247.43-79.76,350.24a10.65,10.65,0,0,1-20.19-4.72A11.2,11.2,0,0,1,362,452a503.52,503.52,0,0,0,17.33-131.71c0-91.79-24.2-176.81-65.49-246.55-9.8-16.52.29-39.29,17.31-39.29H432.59c14.61,0,26.86,13.48,27.84,30.83Q461.56,87.15,461.58,109.36Z"/><path class="cls-3" d="M370.18,318.95a504.33,504.33,0,0,1-17.69,133.23,18.22,18.22,0,0,1-17.61,13.34h-66a18.27,18.27,0,0,1-18.2-19.89c1.31-14.93,2-30.12,2-45.46,0-122.07-42.69-232.18-111.14-310-17.7-20.12-6.33-55.71,18.06-55.71H267.46c7.78,0,15.25,3.93,20.21,11.05C339.22,119.57,370.18,214.89,370.18,318.95Z"/></svg>