<svg id="Layer_1" data-name="Layer 1" xmlns="http://www.w3.org/2000/svg" xmlns:xlink="http://www.w3.org/1999/xlink" width="118" height="44" viewBox="0 0 118 44"><defs><style>.cls-1{fill:url(#linear-gradient);}.cls-2{fill:url(#linear-gradient-2);}.cls-3{fill:url(#linear-gradient-3);}.cls-4{font-size:26px;letter-spacing:0.03em;}.cls-4,.cls-5,.cls-6{fill:#fff;}.cls-4,.cls-5{font-family:BourbonGrotesque-Regular, Bourbon Grotesque;}.cls-5{font-size:9px;letter-spacing:0.29em;}.cls-6{stroke:#fff;stroke-miterlimit:10;}</style><linearGradient id="linear-gradient" x1="-4.36" y1="36.91" x2="17.66" y2="14.89" gradientUnits="userSpaceOnUse"><stop offset="0.06" stop-color="#1b9aaa"/><stop offset="0.09" stop-color="#2d93a5"/><stop offset="0.17" stop-color="#55839a"/><stop offset="0.32" stop-color="#976a88"/><stop offset="0.44" stop-color="#c6577a"/><stop offset="0.53" stop-color="#e44b72"/><stop offset="0.58" stop-color="#ef476f"/><stop offset="0.67" stop-color="#f25c6d"/><stop offset="0.85" stop-color="#f99269"/><stop offset="1" stop-color="#ffc265"/></linearGradient><linearGradient id="linear-gradient-2" x1="22.31" y1="37.61" x2="43.14" y2="1.53" gradientUnits="userSpaceOnUse"><stop offset="0" stop-color="#ffc757"/><stop offset="0.92" stop-color="#f4f4b3"/></linearGradient><linearGradient id="linear-gradient-3" x1="11.68" y1="37.68" x2="30.98" y2="4.26" gradientUnits="userSpaceOnUse"><stop offset="0" stop-color="#ef476f"/><stop offset="0.69" stop-color="#f4c676"/></linearGradient></defs><title>S</title><path class="cls-1" d="M20.57,37.87q0,2.27-.2,4.49A1.79,1.79,0,0,1,18.59,44H4.65A4.65,4.65,0,0,1,0,39.35V2.67A1.82,1.82,0,0,1,1.66.72,3.35,3.35,0,0,1,2.71.89a3.4,3.4,0,0,1,1,.51C13.84,9.13,20.57,22.57,20.57,37.87Z"/><path class="cls-2" d="M42.79,7.64A80.86,80.86,0,0,1,34.65,43.4a1.09,1.09,0,0,1-2.06-.48,1.14,1.14,0,0,1,0-.29,51.4,51.4,0,0,0,1.77-13.44A49.42,49.42,0,0,0,27.71,4c-1-1.69,0-4,1.77-4H39.83a3.11,3.11,0,0,1,2.84,3.15Q42.79,5.38,42.79,7.64Z"/><path class="cls-3" d="M33.46,29a51.48,51.48,0,0,1-1.81,13.6A1.86,1.86,0,0,1,29.85,44H23.12a1.87,1.87,0,0,1-1.86-2c.13-1.52.2-3.07.2-4.64,0-12.46-4.36-23.7-11.35-31.64C8.31,3.63,9.47,0,12,0H23A2.52,2.52,0,0,1,25,1.13,48.87,48.87,0,0,1,33.46,29Z"/><text class="cls-4" transform="translate(47.95 24.36)">S&amp;N</text><text class="cls-5" transform="translate(47.95 37.11)">cUrtaiN</text><line class="cls-6" x1="47.95" y1="26.92" x2="109" y2="26.92"/></svg>